<svg id="Group_414" data-name="Group 414" xmlns="http://www.w3.org/2000/svg" width="14.59" height="18.764" viewBox="0 0 14.59 18.764">
  <path id="Path_465" data-name="Path 465" d="M822.9,366.764h-9.749a.267.267,0,0,0-.063-.03,2.742,2.742,0,0,1-2.355-2.8q0-2.619,0-5.237c0-2.045,0-4.09,0-6.135a2.725,2.725,0,0,1,1.911-2.623c.13-.042.144-.113.142-.226a1.58,1.58,0,0,1,.741-1.426,3.928,3.928,0,0,1,.687-.282h7.623a.138.138,0,0,0,.032.018,1.635,1.635,0,0,1,1.394,1.746c0,.117.06.138.146.167a2.73,2.73,0,0,1,1.908,2.61q.009,5.759,0,11.518a2.73,2.73,0,0,1-2,2.6C823.179,366.7,823.038,366.728,822.9,366.764Zm.376-15.69c-.013.071-.026.142-.039.212a1.625,1.625,0,0,1-1.584,1.365q-3.627.011-7.255,0a1.631,1.631,0,0,1-1.53-1.134c-.046-.143-.066-.294-.1-.45a.941.941,0,0,0-.1.046,1.626,1.626,0,0,0-.834,1.471q0,5.688,0,11.376a1.645,1.645,0,0,0,1.7,1.7q4.5,0,9,0a1.9,1.9,0,0,0,.47-.058,1.644,1.644,0,0,0,1.226-1.662q0-5.67,0-11.34c0-.049,0-.1,0-.146A1.605,1.605,0,0,0,823.273,351.074Zm-5.253-1.974q-1.767,0-3.534,0a.555.555,0,0,0-.605.6q0,.622,0,1.245a.555.555,0,0,0,.6.607q3.543,0,7.086,0a.553.553,0,0,0,.6-.593c0-.4,0-.806,0-1.208a.57.57,0,0,0-.646-.653Z" transform="translate(-810.728 -348)" fill="currentColor"/>
  <path id="Path_469" data-name="Path 469" d="M860.076,591.189c-.1.136-.18.254-.267.37a.55.55,0,1,1-.892-.641c.132-.19.266-.38.406-.564a.157.157,0,0,0,0-.224c-.141-.183-.274-.374-.406-.564a.551.551,0,1,1,.9-.631c.082.111.162.224.257.355.1-.136.182-.254.268-.369a.551.551,0,0,1,.787-.15.545.545,0,0,1,.113.779c-.134.2-.271.391-.415.58a.156.156,0,0,0,0,.224c.14.184.274.374.405.564a.55.55,0,1,1-.891.643C860.257,591.443,860.175,591.325,860.076,591.189Z" transform="translate(-856.447 -576.904)" fill="currentColor"/>
  <path id="Path_470" data-name="Path 470" d="M860.061,506.069c.317-.379.613-.735.911-1.089a.535.535,0,0,1,.553-.2.549.549,0,0,1,.3.892c-.487.586-.971,1.175-1.468,1.753a.535.535,0,0,1-.9-.11c-.206-.387-.4-.78-.59-1.176a.547.547,0,0,1,.981-.484C859.918,505.78,859.981,505.912,860.061,506.069Z" transform="translate(-856.461 -497.103)" fill="currentColor"/>
  <path id="Path_471" data-name="Path 471" d="M974.942,522.715c.518,0,1.037,0,1.555,0a.552.552,0,1,1-.006,1.1H973.4a.553.553,0,1,1,.006-1.1C973.918,522.714,974.43,522.715,974.942,522.715Z" transform="translate(-964.863 -514.177)" fill="currentColor"/>
  <path id="Path_472" data-name="Path 472" d="M974.944,611.639c-.518,0-1.037,0-1.555,0a.552.552,0,0,1-.607-.542.558.558,0,0,1,.6-.557q1.564,0,3.128,0a.558.558,0,0,1,.6.555.551.551,0,0,1-.606.543C975.981,611.64,975.462,611.639,974.944,611.639Z" transform="translate(-964.863 -597.71)" fill="currentColor"/>
</svg>
