<svg id="ic_invoice" xmlns="http://www.w3.org/2000/svg" width="22" height="22" viewBox="0 0 22 22">
  <path id="Path_378" data-name="Path 378" d="M0,0H22V22H0Z" fill="none"/>
  <path id="Path_379" data-name="Path 379" d="M14,3V6.667a.917.917,0,0,0,.917.917h3.667" transform="translate(-1.167 -0.25)" fill="none" stroke="currentColor" stroke-linecap="round" stroke-linejoin="round" stroke-width="1.3"/>
  <path id="Path_380" data-name="Path 380" d="M16,19.5H6.833A1.833,1.833,0,0,1,5,17.667V4.833A1.833,1.833,0,0,1,6.833,3H13.25l4.583,4.583V17.667A1.833,1.833,0,0,1,16,19.5Z" transform="translate(-0.417 -0.25)" fill="none" stroke="currentColor" stroke-linecap="round" stroke-linejoin="round" stroke-width="1.3"/>
  <line id="Line_12" data-name="Line 12" x2="1" transform="translate(8 6)" fill="none" stroke="currentColor" stroke-linecap="round" stroke-linejoin="round" stroke-width="1.3"/>
  <line id="Line_13" data-name="Line 13" x2="6" transform="translate(8 10)" fill="none" stroke="currentColor" stroke-linecap="round" stroke-linejoin="round" stroke-width="1.3"/>
  <line id="Line_14" data-name="Line 14" x2="4" transform="translate(10 13)" fill="none" stroke="currentColor" stroke-linecap="round" stroke-linejoin="round" stroke-width="1.3"/>
  <line id="Line_38" data-name="Line 38" x2="2" transform="translate(12 16)" fill="none" stroke="currentColor" stroke-linecap="round" stroke-linejoin="round" stroke-width="1.3"/>
</svg>
