<svg xmlns="http://www.w3.org/2000/svg" width="14.922" height="18.019" viewBox="0 0 14.922 18.019">
  <g id="Group_15938" data-name="Group 15938" transform="translate(0)">
    <path id="Path_1099" data-name="Path 1099" d="M802.015,348h10.348a1.29,1.29,0,0,1,1.021,1.5q0,2.91,0,5.819a.211.211,0,0,0,.163.238,3.658,3.658,0,0,1,1.365,5.945.437.437,0,0,0-.111.272c-.007,1.166-.014,2.333,0,3.5a.7.7,0,0,1-.428.743h-.281c-.573-.326-1.144-.656-1.721-.974a.284.284,0,0,0-.233.01c-.572.316-1.138.641-1.706.964h-.282a.685.685,0,0,1-.427-.743c.019-.533.005-1.067.005-1.6v-.191h-7.378a1.236,1.236,0,0,1-1.351-1.356q0-4.37,0-8.74,0-2.066,0-4.133a1.216,1.216,0,0,1,.942-1.222A.571.571,0,0,0,802.015,348Zm10.242,7.274v-.142q0-2.885,0-5.77c0-.234,0-.236-.236-.236h-9.659c-.241,0-.242,0-.242.247v12.737c0,.248,0,.248.241.248h7.178c.057,0,.113-.005.183-.008,0-.181-.007-.35,0-.518a.443.443,0,0,0-.136-.356,3.648,3.648,0,0,1,1.568-5.979A10.489,10.489,0,0,1,812.257,355.274Zm.012,1.172A2.534,2.534,0,1,0,814.791,359,2.538,2.538,0,0,0,812.269,356.447Zm1.389,8.033v-2.116a3.7,3.7,0,0,1-2.8,0v2.114c.351-.2.69-.381,1.017-.583a.66.66,0,0,1,.756-.005C812.96,364.092,813.3,364.275,813.658,364.479Z" transform="translate(-800.994 -348)" fill="currentColor"/>
    <path id="Path_1100" data-name="Path 1100" d="M863.718,409.023H861.6a.517.517,0,1,1,0-1.027h4.255a.516.516,0,1,1,0,1.027Q864.786,409.025,863.718,409.023Z" transform="translate(-858.044 -405.164)" fill="currentColor"/>
    <path id="Path_1101" data-name="Path 1101" d="M863.736,456h2.1a.517.517,0,1,1,.007,1.027h-4.255A.517.517,0,1,1,861.6,456Z" transform="translate(-858.044 -450.899)" fill="currentColor"/>
    <path id="Path_1102" data-name="Path 1102" d="M862.828,503.994h1.22a.516.516,0,1,1,.01,1.027q-1.236,0-2.472,0a.516.516,0,1,1,.006-1.027Z" transform="translate(-858.117 -496.631)" fill="currentColor"/>
    <path id="Path_1103" data-name="Path 1103" d="M1006.143,554.105c.252-.377.494-.741.738-1.1a.5.5,0,0,1,.5-.231.513.513,0,0,1,.364.791c-.342.516-.683,1.034-1.032,1.545a.486.486,0,0,1-.691.146q-.409-.253-.8-.53a.5.5,0,0,1-.13-.7.509.509,0,0,1,.705-.149C1005.9,553.944,1006.014,554.021,1006.143,554.105Z" transform="translate(-995.206 -543.001)" fill="currentColor"/>
  </g>
</svg>
