<svg id="Group_416" data-name="Group 416" xmlns="http://www.w3.org/2000/svg" width="15.358" height="15.953" viewBox="0 0 15.358 15.953">
  <path id="Path_479" data-name="Path 479" d="M410,481.869c.415.2.83.4,1.238.611a.674.674,0,0,1,.408.668.724.724,0,0,1-1.114.594,6.508,6.508,0,0,0-1.974-.773,6.034,6.034,0,0,0-7.1,4.566,8.844,8.844,0,0,0-.143,1.308.722.722,0,0,1-.92.706.683.683,0,0,1-.546-.736,7.276,7.276,0,0,1,1.383-4.26,7.434,7.434,0,0,1,3.221-2.561c.03-.013.06-.029.108-.053a4.519,4.519,0,0,1-1.931-4.125,4.415,4.415,0,0,1,1.656-3.135,4.646,4.646,0,0,1,6.415.489A4.549,4.549,0,0,1,410,481.869Zm-5.939-3.679a3.17,3.17,0,1,0,3.2-3.129A3.137,3.137,0,0,0,404.063,478.19Z" transform="translate(-399.846 -473.617)" fill="currentColor"/>
  <path id="Path_480" data-name="Path 480" d="M614.484,700.748c0,.249,0,.482,0,.714s.007.457,0,.685a.7.7,0,0,1-1.393-.025c-.005-.451,0-.9,0-1.367-.061,0-.114-.007-.166-.007-.419,0-.838,0-1.257,0a.692.692,0,0,1-.114-1.375,4.729,4.729,0,0,1,.618-.021c.3,0,.6,0,.918,0v-.183c0-.392,0-.783,0-1.175a.7.7,0,1,1,1.4,0c0,.386,0,.773,0,1.159v.2h.185c.4,0,.795-.006,1.192,0a.685.685,0,0,1,.686.9.655.655,0,0,1-.664.5c-.408,0-.816,0-1.224,0Z" transform="translate(-601.217 -686.941)" fill="currentColor"/>
</svg>
