<svg id="Group_417" data-name="Group 417" xmlns="http://www.w3.org/2000/svg" width="16.819" height="16.819" viewBox="0 0 16.819 16.819">
  <path id="Path_482" data-name="Path 482" d="M1140.021,73.923c.312.054.625.1.934.164a5.9,5.9,0,0,1,3.443,9.185c-.2.291-.446.554-.651.845a3.782,3.782,0,0,0-.7,2.28q.005.4,0,.8a1.482,1.482,0,0,1-.919,1.428.289.289,0,0,0-.129.181,2.458,2.458,0,0,1-4.8,0,.308.308,0,0,0-.143-.189,1.469,1.469,0,0,1-.9-1.355c-.011-.257-.009-.515,0-.772a3.974,3.974,0,0,0-1.02-2.8,5.852,5.852,0,0,1-1.444-4.029,5.915,5.915,0,0,1,3.555-5.267,6.019,6.019,0,0,1,1.822-.453.7.7,0,0,0,.109-.027Zm2.049,11.852c.059-.263.106-.52.175-.772a5.745,5.745,0,0,1,1.176-2.082,4.772,4.772,0,0,0,1.031-3.874,4.688,4.688,0,0,0-1.372-2.686,4.775,4.775,0,0,0-4.006-1.417,4.633,4.633,0,0,0-3.971,2.879,4.761,4.761,0,0,0,.782,5.246A5.2,5.2,0,0,1,1136.942,85c.071.256.118.518.176.78Zm-4.94,1c0,.055,0,.1,0,.151,0,.131-.008.264.007.393a.477.477,0,0,0,.48.431q1.977.006,3.954,0a.443.443,0,0,0,.457-.352,4.828,4.828,0,0,0,.038-.623Zm3.835,1.971h-2.744a1.437,1.437,0,0,0,2.744,0Z" transform="translate(-1131.184 -73.923)" fill="currentColor"/>
  <path id="Path_483" data-name="Path 483" d="M1072.987,217.86a.607.607,0,0,1,.66-.365c.261.018.524,0,.786,0a.493.493,0,1,1,0,.984c-.262,0-.525-.012-.787,0a.609.609,0,0,1-.661-.365Z" transform="translate(-1072.987 -211.586)" fill="currentColor"/>
  <path id="Path_484" data-name="Path 484" d="M1078.131,138.409a.51.51,0,0,1-.278.491.435.435,0,0,1-.508-.05c-.273-.251-.539-.513-.789-.788a.485.485,0,0,1,.688-.676c.266.244.52.5.765.766A.817.817,0,0,1,1078.131,138.409Z" transform="translate(-1076.302 -134.664)" fill="currentColor"/>
  <path id="Path_485" data-name="Path 485" d="M1437.816,138.914a.5.5,0,0,1-.484-.276.426.426,0,0,1,.04-.495c.257-.283.527-.556.81-.813a.484.484,0,0,1,.682.67c-.259.288-.54.557-.823.822A.591.591,0,0,1,1437.816,138.914Z" transform="translate(-1422.284 -134.623)" fill="currentColor"/>
  <path id="Path_486" data-name="Path 486" d="M1077.542,280.994a.5.5,0,0,1,.479.269.432.432,0,0,1-.041.509c-.258.282-.528.555-.812.81a.483.483,0,0,1-.68-.668c.262-.293.548-.564.834-.834A.578.578,0,0,1,1077.542,280.994Z" transform="translate(-1076.253 -272.474)" fill="currentColor"/>
  <path id="Path_487" data-name="Path 487" d="M1437.936,280.95a1.205,1.205,0,0,1,.285.159c.235.213.456.441.676.67a.492.492,0,1,1-.7.692c-.232-.224-.461-.452-.683-.686a.465.465,0,0,1-.089-.547A.517.517,0,0,1,1437.936,280.95Z" transform="translate(-1422.382 -272.432)" fill="currentColor"/>
  <path id="Path_488" data-name="Path 488" d="M1434.911,217.62c.159,0,.318,0,.476,0a.491.491,0,1,1,.005.982q-.493.011-.985,0a.491.491,0,1,1,.011-.982C1434.583,217.617,1434.747,217.62,1434.911,217.62Z" transform="translate(-1419.063 -211.706)" fill="currentColor"/>
  <path id="Path_489" data-name="Path 489" d="M1266.076,121.84a3.953,3.953,0,0,1,3.712,3.158,4.82,4.82,0,0,1,.077.717.493.493,0,1,1-.981.033,2.931,2.931,0,0,0-1.239-2.368,2.865,2.865,0,0,0-1.556-.55c-.071,0-.143,0-.213-.01a.491.491,0,0,1,.037-.979C1265.966,121.838,1266.021,121.84,1266.076,121.84Z" transform="translate(-1257.516 -119.867)" fill="currentColor"/>
</svg>
