<svg xmlns="http://www.w3.org/2000/svg" width="16.459" height="16.459" viewBox="0 0 16.459 16.459">
  <g id="Icon_feather-settings" data-name="Icon feather-settings" transform="translate(-0.9 -0.9)">
    <path id="Path_7379" data-name="Path 7379" d="M17.661,15.581A2.081,2.081,0,1,1,15.581,13.5,2.081,2.081,0,0,1,17.661,15.581Z" transform="translate(-6.451 -6.451)" fill="none" stroke="currentColor" stroke-linecap="round" stroke-linejoin="round" stroke-width="1.2"/>
    <path id="Path_7380" data-name="Path 7380" d="M14.262,11.21a1.144,1.144,0,0,0,.229,1.262l.042.042a1.388,1.388,0,1,1-1.963,1.963l-.042-.042a1.154,1.154,0,0,0-1.956.818v.118a1.387,1.387,0,0,1-2.774,0v-.062a1.144,1.144,0,0,0-.749-1.047,1.144,1.144,0,0,0-1.262.229l-.042.042A1.388,1.388,0,1,1,3.782,12.57l.042-.042a1.154,1.154,0,0,0-.818-1.956H2.887a1.387,1.387,0,1,1,0-2.774H2.95A1.144,1.144,0,0,0,4,7.049a1.144,1.144,0,0,0-.229-1.262l-.042-.042A1.388,1.388,0,1,1,5.689,3.782l.042.042a1.144,1.144,0,0,0,1.262.229h.055a1.144,1.144,0,0,0,.694-1.047V2.887a1.387,1.387,0,1,1,2.774,0V2.95a1.154,1.154,0,0,0,1.956.818l.042-.042a1.388,1.388,0,1,1,1.963,1.963l-.042.042a1.144,1.144,0,0,0-.229,1.262v.055a1.144,1.144,0,0,0,1.047.694h.118a1.387,1.387,0,1,1,0,2.774h-.062a1.144,1.144,0,0,0-1.047.694Z" fill="none" stroke="currentColor" stroke-linecap="round" stroke-linejoin="round" stroke-width="1.2"/>
  </g>
</svg>
