<svg xmlns="http://www.w3.org/2000/svg" width="14.924" height="17.357" viewBox="0 0 14.924 17.357">
  <path id="Path_481" data-name="Path 481" d="M1054.636,644.036a2.657,2.657,0,0,1-.925-.391,2.032,2.032,0,1,1,3.052-2.465.2.2,0,0,0,.221.147c.684-.007,1.367,0,2.051-.006a2.013,2.013,0,0,0,1.872-1.421l-.3.046a2.031,2.031,0,0,1-2.309-1.925q-.025-1.3,0-2.61a2.032,2.032,0,0,1,2.472-1.9c.06.014.12.03.213.053a5.925,5.925,0,0,0-2.633-4.445,5.839,5.839,0,0,0-6.466-.264,5.957,5.957,0,0,0-3.063,4.714,2.067,2.067,0,0,1,1.406.034,2.035,2.035,0,0,1,1.286,1.833c.009.853.011,1.706,0,2.559a2.03,2.03,0,0,1-4.034.269,2.685,2.685,0,0,1-.03-.4c0-1.215-.02-2.43,0-3.644a7.316,7.316,0,0,1,4.194-6.778,6.9,6.9,0,0,1,3.826-.729,7.418,7.418,0,0,1,6.53,5.141,7.3,7.3,0,0,1,.36,2.316c0,1.7,0,3.4,0,5.1a3.389,3.389,0,0,1-3.409,3.414q-.983,0-1.966,0a.2.2,0,0,0-.225.14,1.991,1.991,0,0,1-1.523,1.188.856.856,0,0,0-.1.03Zm-5.831-7.346c0,.406,0,.812,0,1.219a.678.678,0,1,0,1.354,0q0-1.193,0-2.386a.678.678,0,1,0-1.354,0C1048.8,635.911,1048.806,636.3,1048.806,636.69Zm12.2.023c0-.395,0-.79,0-1.185a.678.678,0,1,0-1.355,0q0,1.185,0,2.369a.678.678,0,1,0,1.355,0C1061.011,637.5,1061.009,637.108,1061.009,636.713Zm-6.1,4.611a.677.677,0,1,0,.676.679A.679.679,0,0,0,1054.908,641.324Z" transform="translate(-1047.442 -626.679)" fill="currentColor"/>
</svg>
